# xmcd
# Copyright (C) 1995-1998 Ti Kan
#
# Track frame offsets:
#       150
#       18655
#       38313
#       57511
#       76834
#       86845
#       102312
#       121407
#       141042
#       169653
#       185904
#       198315
#       218695
#       235720
#
# Disc length: 3421 seconds
#
# Revision: 0
# Processed by: cddbd v1.5.1PL2 Copyright (c) Steve Scherf et al.
# Submitted via: CD-Transfer v1.0
#
DISCID=b90d5b0e
DTITLE=Goldies Sendung - 
DYEAR=1900
DGENRE=
TTITLE0=Wop 010506 - Song 2-1
TTITLE1=Wop 010506 - Song 2-2
TTITLE2=Wop 010506 - Song 2-3
TTITLE3=Wop 010506 - Song 2-4
TTITLE4=Wop 010506 - Song 2-5
TTITLE5=Wop 010506 - Song 2-6
TTITLE6=Wop 010506 - Song 2-7
TTITLE7=Wop 010506 - Song 2-8
TTITLE8=Wop 010506 - Song 2-9
TTITLE9=Wop 010506 - Song 2-10
TTITLE10=Wop 010506 - Song 2-11
TTITLE11=Wop 010506 - Song 2-12
TTITLE12=Wop 010506 - Song 2-13
TTITLE13=Wop 010506 - Song 2-14
EXTD=
EXTT0=
EXTT1=
EXTT2=
EXTT3=
EXTT4=
EXTT5=
EXTT6=
EXTT7=
EXTT8=
EXTT9=
EXTT10=
EXTT11=
EXTT12=
EXTT13=
PLAYORDER=
